<?xml version="1.0" encoding="iso-8859-1"?>
<!-- Generator: Adobe Illustrator 22.1.0, SVG Export Plug-In . SVG Version: 6.00 Build 0)  -->
<svg version="1.1" xmlns="http://www.w3.org/2000/svg" xmlns:xlink="http://www.w3.org/1999/xlink" x="0px" y="0px"
	 viewBox="0 0 50 50" style="enable-background:new 0 0 50 50;" xml:space="preserve">
<g id="Layer_1">
	<path d="M11.899,49c2.912,0,5.648-1.134,7.707-3.192l9.201-9.201C30.866,34.548,32,31.811,32,28.899
		c0-4.825-3.098-9.015-7.708-10.424l-0.585,1.912C27.471,21.539,30,24.959,30,28.899c0,2.377-0.926,4.612-2.606,6.293l-9.201,9.201
		C16.511,46.074,14.276,47,11.899,47C6.992,47,3,43.008,3,38.101c0-2.377,0.926-4.612,2.606-6.293l9.201-9.201
		c0.291-0.291,0.604-0.563,0.93-0.81l-1.205-1.596c-0.4,0.302-0.783,0.636-1.139,0.991l-9.201,9.201C2.134,32.452,1,35.189,1,38.101
		C1,44.11,5.89,49,11.899,49z"/>
	<path d="M38.101,1c-2.912,0-5.648,1.134-7.707,3.192l-9.201,9.201C19.134,15.452,18,18.189,18,21.101
		c0,5.207,3.705,9.706,8.809,10.699l0.382-1.963C23.024,29.026,20,25.353,20,21.101c0-2.377,0.926-4.612,2.606-6.293l9.201-9.201
		C33.489,3.926,35.724,3,38.101,3C43.008,3,47,6.992,47,11.899c0,2.377-0.926,4.612-2.606,6.293l-9.202,9.202
		c-0.252,0.252-0.524,0.493-0.807,0.714l1.23,1.576c0.348-0.271,0.682-0.566,0.991-0.877l9.201-9.201
		C47.866,17.548,49,14.811,49,11.899C49,5.89,44.11,1,38.101,1z"/>
	<path d="M40,31c-4.962,0-9,4.037-9,9s4.038,9,9,9s9-4.037,9-9S44.962,31,40,31z M40,47c-3.86,0-7-3.141-7-7s3.14-7,7-7s7,3.141,7,7
		S43.86,47,40,47z"/>
	<polygon points="42.293,36.293 40,38.586 37.707,36.293 36.293,37.707 38.586,40 36.293,42.293 37.707,43.707 40,41.414 
		42.293,43.707 43.707,42.293 41.414,40 43.707,37.707 	"/>
</g>
<g>
</g>
</svg>
