<?xml version="1.0" encoding="UTF-8" standalone="no"?>
<svg width="230px" height="168px" viewBox="0 0 230 168" version="1.1" xmlns="http://www.w3.org/2000/svg" xmlns:xlink="http://www.w3.org/1999/xlink">
	<g fill="currentColor">
		<g transform="translate(1.034343, 123.086869)">
			<ellipse cx="22.4111192" cy="22.2642424" rx="22.2383838" ry="22.2383838"></ellipse>
			<ellipse cx="102.686513" cy="22.5073131" rx="15.7292606" ry="15.7292606"></ellipse>
			<ellipse cx="168.858634" cy="22.5073131" rx="7.14110707" ry="7.14110707"></ellipse>
		</g>
		<g>
			<path d="M99.4841859,98.7580768 C95.5743677,98.7580768 92.6782061,95.7181414 92.6782061,91.952097 L92.6782061,62.9904808 C92.6782061,52.9987232 87.8995394,45.3238949 77.1837414,45.3238949 C66.4679434,45.3238949 59.9515798,53.5779556 59.9515798,63.1363232 L59.9515798,91.952097 C59.9515798,95.7181414 57.3450343,98.7580768 53.1456,98.7580768 C49.0909737,98.7580768 46.3396202,95.7181414 46.3396202,91.952097 L46.3396202,62.9904808 C46.3396202,52.9987232 41.1265293,45.3238949 30.4107313,45.3238949 C19.4053172,45.3238949 13.6129939,53.5779556 13.6129939,63.1363232 L13.6129939,91.952097 C13.6129939,95.7181414 10.8616404,98.7580768 6.80701414,98.7580768 C2.89616162,98.7580768 0,95.7181414 0,91.952097 L0,40.5452283 C0,36.490602 2.60654545,33.5944404 6.8059798,33.5944404 C11.4398384,33.5944404 13.6119596,36.7802182 13.6119596,40.5452283 L13.6119596,45.1790869 C17.5217778,37.5042586 25.4862222,33.0152081 34.029899,33.0152081 C44.4560808,33.0152081 52.2757172,38.228299 56.1855354,45.9031273 C61.8330505,37.2146424 70.0871111,33.0152081 80.3684848,33.0152081 C97.8902626,33.0152081 106.289131,45.0342788 106.289131,61.9768242 L106.289131,91.9510626 C106.288097,95.7181414 103.538812,98.7580768 99.4841859,98.7580768 L99.4841859,98.7580768 Z"></path>
			<path d="M125.404832,7.81860202 C129.749075,7.81860202 133.369277,11.438804 133.369277,15.7830465 C133.369277,20.1272889 129.749075,23.7474909 125.404832,23.7474909 C121.06059,23.7474909 117.440388,20.1272889 117.440388,15.7830465 C117.440388,11.438804 121.06059,7.81860202 125.404832,7.81860202 L125.404832,7.81860202 Z M125.404832,98.7580768 C121.350206,98.7580768 118.598853,95.7181414 118.598853,91.952097 L118.598853,40.4004202 C118.598853,36.6354101 121.495014,33.5944404 125.404832,33.5944404 C129.314651,33.5944404 132.210812,36.6354101 132.210812,40.4004202 L132.210812,91.952097 C132.208743,95.7181414 129.459459,98.7580768 125.404832,98.7580768 L125.404832,98.7580768 Z"></path>
			<path d="M170.581851,57.0533495 L187.814012,35.6217535 C188.972477,34.3184808 190.420558,33.5944404 192.303063,33.5944404 C196.068073,33.5944404 198.52981,36.0561778 198.52981,39.5315717 C198.52981,40.8348444 198.095386,42.1381172 196.936921,43.4413899 L177.967063,66.0314505 L197.226537,88.7652848 C198.240194,89.9237495 198.819426,91.0822141 198.819426,92.8199111 C198.819426,96.1525657 195.923265,98.7570424 192.737487,98.7570424 C190.710174,98.7570424 189.117285,98.033002 187.95882,96.5828525 L170.581851,75.0085172 L153.204881,96.5828525 C152.046416,98.029899 150.453527,98.7570424 148.426214,98.7570424 C145.240436,98.7570424 142.344275,96.1494626 142.344275,92.8199111 C142.344275,91.0822141 142.923507,89.9237495 143.937164,88.7652848 L163.196638,66.0314505 L144.22678,43.4424242 C143.068315,42.1370828 142.633891,40.8348444 142.633891,39.5326061 C142.633891,36.0572121 145.095628,33.5954747 148.860638,33.5954747 C150.743143,33.5954747 152.191224,34.3195152 153.349689,35.6227879 L170.581851,57.0533495 L170.581851,57.0533495 Z"></path>
		</g>
	</g>
</svg>