<svg fill="#000000" xmlns="http://www.w3.org/2000/svg"  viewBox="0 0 50 50" width="50px" height="50px"><path d="M 5 7 C 2.25 7 0 9.25 0 12 L 0 38 C 0 40.75 2.25 43 5 43 L 45 43 C 47.75 43 50 40.75 50 38 L 50 12 C 50 9.25 47.75 7 45 7 Z M 5 9 L 45 9 C 46.667969 9 48 10.332031 48 12 L 48 38 C 48 39.667969 46.667969 41 45 41 L 5 41 C 3.332031 41 2 39.667969 2 38 L 2 12 C 2 10.332031 3.332031 9 5 9 Z M 25.90625 18 C 25.285156 18.125 24.8125 18.683594 24.8125 19.34375 C 24.8125 20.089844 25.429688 20.6875 26.1875 20.6875 C 26.933594 20.6875 27.53125 20.089844 27.53125 19.34375 C 27.53125 18.585938 26.933594 18 26.1875 18 C 26.09375 18 25.996094 17.980469 25.90625 18 Z M 16.8125 19.1875 L 14.625 19.5625 L 14.3125 21.5 L 13.53125 21.625 L 13.25 23.40625 L 14.3125 23.40625 L 14.3125 27.15625 C 14.3125 28.128906 14.554688 28.773438 15.0625 29.1875 C 15.488281 29.53125 16.078125 29.71875 16.9375 29.71875 C 17.601563 29.71875 18.03125 29.601563 18.3125 29.53125 L 18.3125 27.5 C 18.15625 27.539063 17.800781 27.625 17.5625 27.625 C 17.054688 27.625 16.8125 27.371094 16.8125 26.78125 L 16.8125 23.40625 L 18.15625 23.40625 L 18.46875 21.5 L 16.8125 21.5 Z M 10.15625 21.34375 C 9.285156 21.34375 8.582031 21.574219 8.0625 22 C 7.523438 22.445313 7.25 23.066406 7.25 23.84375 C 7.25 25.25 8.101563 25.867188 9.5 26.375 C 10.402344 26.695313 10.6875 26.929688 10.6875 27.28125 C 10.6875 27.625 10.402344 27.8125 9.875 27.8125 C 9.222656 27.8125 8.140625 27.476563 7.4375 27.0625 L 7.125 29 C 7.726563 29.34375 8.839844 29.71875 10 29.71875 C 10.921875 29.71875 11.703125 29.476563 12.21875 29.0625 C 12.796875 28.605469 13.09375 27.929688 13.09375 27.0625 C 13.09375 25.625 12.230469 25.039063 10.8125 24.53125 C 10.054688 24.25 9.625 24.03125 9.625 23.6875 C 9.625 23.398438 9.855469 23.25 10.28125 23.25 C 11.058594 23.25 11.859375 23.542969 12.40625 23.8125 L 12.71875 21.875 C 12.285156 21.667969 11.386719 21.34375 10.15625 21.34375 Z M 33.0625 21.34375 C 32.316406 21.34375 31.671875 21.660156 31.0625 22.3125 L 30.9375 21.5 L 28.65625 21.5 L 28.65625 32.53125 L 31.25 32.09375 L 31.25 29.53125 C 31.644531 29.65625 32.042969 29.71875 32.40625 29.71875 C 33.046875 29.71875 33.960938 29.535156 34.6875 28.75 C 35.382813 27.992188 35.75 26.824219 35.75 25.28125 C 35.75 23.914063 35.488281 22.882813 34.96875 22.21875 C 34.511719 21.628906 33.871094 21.34375 33.0625 21.34375 Z M 40.28125 21.34375 C 38.097656 21.34375 36.71875 22.972656 36.71875 25.5625 C 36.71875 27.011719 37.097656 28.089844 37.8125 28.78125 C 38.453125 29.402344 39.371094 29.71875 40.5625 29.71875 C 41.660156 29.71875 42.671875 29.457031 43.3125 29.03125 L 43.03125 27.28125 C 42.398438 27.625 41.671875 27.78125 40.84375 27.78125 C 40.347656 27.78125 39.996094 27.6875 39.75 27.46875 C 39.480469 27.242188 39.332031 26.871094 39.28125 26.34375 L 43.53125 26.34375 C 43.542969 26.21875 43.5625 25.625 43.5625 25.4375 C 43.5625 24.152344 43.265625 23.152344 42.71875 22.4375 C 42.160156 21.710938 41.347656 21.34375 40.28125 21.34375 Z M 23.40625 21.375 C 22.679688 21.375 22.101563 21.753906 21.875 22.4375 L 21.71875 21.5 L 19.46875 21.5 L 19.46875 29.5625 L 22.03125 29.5625 L 22.03125 24.3125 C 22.351563 23.917969 22.816406 23.78125 23.4375 23.78125 C 23.574219 23.78125 23.699219 23.78125 23.875 23.8125 L 23.875 21.4375 C 23.699219 21.398438 23.5625 21.375 23.40625 21.375 Z M 24.875 21.5 L 24.875 29.5625 L 27.46875 29.5625 L 27.46875 21.5 Z M 40.03125 23.09375 C 40.097656 23.078125 40.144531 23.09375 40.21875 23.09375 C 40.796875 23.09375 41.117188 23.640625 41.15625 24.78125 L 39.25 24.78125 C 39.3125 23.777344 39.574219 23.210938 40.03125 23.09375 Z M 32.21875 23.3125 C 32.871094 23.3125 33.1875 23.996094 33.1875 25.375 C 33.1875 26.160156 33.082031 26.773438 32.84375 27.1875 C 32.636719 27.582031 32.308594 27.78125 31.9375 27.78125 C 31.679688 27.78125 31.457031 27.726563 31.25 27.625 L 31.25 23.8125 C 31.683594 23.355469 32.074219 23.3125 32.21875 23.3125 Z"/></svg>